<svg width="40" height="40" viewBox="0 0 40 40" fill="none" xmlns="http://www.w3.org/2000/svg">
<defs><style>.skill-svg-none{fill:none;}.skill-svg-fill{fill:#727469;}</style></defs>
<rect class="skill-svg-none" width="32.07" height="32.07"/>
<path class="skill-svg-fill" d="M20.0001 19.9999C20.0001 12.7798 30.8338 12.7798 30.8338 19.9999C30.8338 27.22 20.0001 27.22 20.0001 19.9999ZM9.16641 30.8336C9.16601 30.1222 9.30584 29.4177 9.57789 28.7604C9.84994 28.1031 10.2489 27.5058 10.7519 27.0028C11.255 26.4997 11.8522 26.1008 12.5095 25.8287C13.1668 25.5567 13.8713 25.4169 14.5827 25.4173H19.9991V30.8336C19.9991 38.0537 9.16641 38.0537 9.16641 30.8336ZM20.0001 3.74992V14.5836H25.4164C32.6365 14.5836 32.6365 3.74992 25.4164 3.74992H20.0001ZM9.16641 9.16625C9.16601 9.87764 9.30584 10.5821 9.57789 11.2395C9.84994 11.8968 10.2489 12.494 10.7519 12.9971C11.255 13.5001 11.8522 13.899 12.5095 14.1711C13.1668 14.4432 13.8713 14.583 14.5827 14.5826H19.9991V3.7489H14.5827C13.8713 3.7485 13.1668 3.88833 12.5095 4.16038C11.8522 4.43243 11.255 4.83138 10.7519 5.33441C10.2489 5.83745 9.84994 6.4347 9.57789 7.09202C9.30584 7.74934 9.16601 8.45485 9.16641 9.16625ZM9.16641 19.9999C9.16601 20.7113 9.30584 21.4158 9.57789 22.0731C9.84994 22.7305 10.2489 23.3277 10.7519 23.8307C11.255 24.3338 11.8522 24.7327 12.5095 25.0048C13.1668 25.2768 13.8713 25.4177 14.5827 25.4173H19.9991V14.5826H14.5827C13.8713 14.5822 13.1668 14.722 12.5095 14.9941C11.8522 15.2661 11.255 15.6651 10.7519 16.1681C10.2489 16.6711 9.84994 17.2684 9.57789 17.9257C9.30584 18.583 9.16601 19.2885 9.16641 19.9999Z"/>
</svg>
