<svg xmlns="http://www.w3.org/2000/svg" viewBox="0 0 32.07 32.07"><defs><style>.skill-svg-none{fill:none;}.skill-svg-fill{fill:#727469;}</style></defs><g id="レイヤー_2" data-name="レイヤー 2"><g id="レイヤー_1-2" data-name="レイヤー 1"><rect class="skill-svg-none" width="32.07" height="32.07"/><path class="skill-svg-fill" d="M4.05,4.73v22.6a.69.69,0,0,0,.68.69h22.6a.69.69,0,0,0,.69-.69V4.73a.69.69,0,0,0-.69-.68H4.73A.69.69,0,0,0,4.05,4.73Zm14.2,11.9H15.43v8.72H13.16V16.63H10.4V14.7h7.85Zm.44,8.23V22.53a5.27,5.27,0,0,0,2.81,1c1.52,0,1.46-1,1.46-1.14,0-1.45-4.32-1.45-4.32-4.66,0-4.37,6.3-2.65,6.3-2.65l-.08,2.08a4.55,4.55,0,0,0-2.25-.71c-1.19,0-1.62.57-1.62,1.18,0,1.57,4.36,1.41,4.36,4.56C25.35,27,18.69,24.86,18.69,24.86Z"/></g></g></svg>